<?xml version="1.0" encoding="UTF-8" standalone="no"?>
<svg
	xmlns="http://www.w3.org/2000/svg"
	version="1.1"
	width="256"
	height="256">
	<g>
		<path
			d="m 8,16 0,96 72,0 0,-16 8,0 0,64 -8,0 0,80 96,0 0,-80 -8,0 0,-64 8,0 0,16 72,0 0,-96 z"
			style="fill:#ffffff;fill-opacity:1;stroke:none" />
		<path
			d="m 16,24 0,80 56,0 0,-16 24,0 0,80 -8,0 0,64 80,0 0,-64 -8,0 0,-80 24,0 0,16 56,0 0,-80 z"
			style="fill:#000080;fill-opacity:1;stroke:none" />
		<path
			d="m 32,40 0,48 24,0 0,-16 56,0 0,112 -8,0 0,32 48,0 0,-32 -8,0 0,-112 56,0 0,16 24,0 0,-48 z"
			style="fill:#ffffff;fill-opacity:1;stroke:none" />
		<path
			d="m 40,48 0,32 8,0 c 0,0 0,-16 8,-16 8,0 64,0 64,0 l 0,128 -8,0 0,16 32,0 0,-16 -8,0 0,-128 64,0 c 0,0 8,0 8,16 l 8,0 0,-32 z"
			style="fill:#ff2400;fill-opacity:1;stroke:none" />
	</g>
</svg>
